# xmcd
#
# Track frame offsets: 
#        150
#        13210
#        26306
#        37814
#        49752
#        62115
#        73811
#        84833
#        95855
#        107008
#        118745
#        131579
#        143517
#        154631
#        164374
#        177469
#        191105
#        201813
#        212403
#        223958
#        234587
#        245462
#        255634
#        267299
#        279149
#        291010
#        303638
#        317774
#
# Disc length: 4398 seconds
#
# Revision: 0
# Processed by: cddbd v1.5.2PL0 Copyright (c) Steve Scherf et al.
# Submitted via: ExactAudioCopy v1.0b1
#
DISCID=9a112c1c
DTITLE=Various Artist - New York Blues 1945-1956 - Rub A Little Boogie - Disc
DTITLE=B
DYEAR=2008
DGENRE=Blues
TTITLE0=Sonny Boy and Lonnie - South West Pacific Blues
TTITLE1=Sonny Boy and Lonnie - Wiggle Round Me Baby
TTITLE2=Sonny Boy and Lonnie - My Baby Blues
TTITLE3=Sonny Boy and Lonnie - The Wide Boogie
TTITLE4=Sonny Boy and Lonnie - I'll Water You Every Day
TTITLE5=Sonny Boy and Lonnie - Bigheaded Woman
TTITLE6=Sonny Boy and Lonnie - Big Moose Blues
TTITLE7=Sonny Boy and Lonnie - Talking Boogie
TTITLE8=Sonny Boy and Lonnie - I Wonder Who's Holding You
TTITLE9=Sonny Boy and Lonnie - Mama Blues
TTITLE10=Big Chief Ellis - Dices, Dices
TTITLE11=Big Chief Ellis - Big Chief's Blues
TTITLE12=Big Chief Ellis - She Is Gone
TTITLE13=Big Chief Ellis - Dices, Dices
TTITLE14=Alonzo Scales - My Baby Don't Allow
TTITLE15=Alonzo Scales - Left My Home Blues
TTITLE16=Leroy Dallas - I'm Down Now But I Won't Be Down Always
TTITLE17=Leroy Dallas - Jump Little Children Jump
TTITLE18=Leroy Dallas - Good Morning Blues
TTITLE19=Leroy Dallas - I'm Going Away
TTITLE20=Leroy Dallas - Your Sweet Man's Blues
TTITLE21=Leroy Dallas - Baby Please Don't Go Back To New Orleans
TTITLE22=Alonzo Scales - Hard Luck Child
TTITLE23=Alonzo Scales - My Baby Likes To Shuffle
TTITLE24=Alonzo Scales - We Just Can't Agree
TTITLE25=Alonzo Scales - She's Gone
TTITLE26=Allen Bunn - My Kinda Woman
TTITLE27=Allen Bunn - Too Much Competition
EXTD=
EXTT0=
EXTT1=
EXTT2=
EXTT3=
EXTT4=
EXTT5=
EXTT6=
EXTT7=
EXTT8=
EXTT9=
EXTT10=
EXTT11=
EXTT12=
EXTT13=
EXTT14=
EXTT15=
EXTT16=
EXTT17=
EXTT18=
EXTT19=
EXTT20=
EXTT21=
EXTT22=
EXTT23=
EXTT24=
EXTT25=
EXTT26=
EXTT27=
PLAYORDER=
